 <svg  version="1.0" xmlns="http://www.w3.org/2000/svg"  width="300.000000pt" height="766.000000pt" viewBox="0 0 300.000000 766.000000"  preserveAspectRatio="xMidYMid meet">  <g transform="translate(0.000000,766.000000) scale(0.100000,-0.100000)" fill="#ecc078" stroke="none"> <path d="M1670 7255 c-19 -9 -51 -31 -70 -50 l-35 -34 -57 20 c-40 15 -68 19 -92 15 -66 -13 -126 -84 -126 -151 0 -16 -6 -25 -16 -25 -27 0 -82 -63 -90 -104 -9 -50 9 -108 45 -142 l29 -27 -25 -35 c-13 -20 -21 -42 -18 -50 3 -7 5 -21 5 -31 0 -9 13 -24 29 -34 28 -16 29 -20 24 -71 -11 -102 48 -165 141 -153 37 5 43 2 77 -34 29 -31 43 -39 71 -39 43 0 100 19 111 37 8 13 78 19 90 7 3 -3 3 -12 0 -20 -3 -9 -22 -14 -56 -14 -61 0 -110 -32 -127 -85 -6 -19 -24 -44 -39 -55 -28 -19 -29 -19 -46 0 -34 38 -136 51 -197 25 -13 -5 -18 -2 -18 11 0 11 -19 64 -41 119 -48 120 -58 185 -36 238 9 20 13 37 10 37 -3 0 -30 -21 -60 -46 -30 -26 -56 -44 -58 -42 -3 3 -27 50 -55 107 -58 118 -120 188 -193 216 -26 10 -50 15 -54 11 -4 -3 4 -25 18 -49 21 -37 24 -54 23 -137 0 -87 -5 -107 -52 -247 -29 -84 -52 -165 -52 -181 0 -43 19 -92 51 -134 16 -20 29 -46 29 -56 0 -11 -16 -77 -35 -148 -52 -189 -46 -294 19 -364 36 -38 37 -57 15 -160 -36 -167 -37 -496 -2 -672 4 -23 2 -28 -13 -28 -11 0 -35 -11 -55 -24 -19 -13 -58 -27 -85 -31 -58 -9 -91 -24 -122 -58 -27 -29 -39 -95 -23 -125 9 -17 7 -28 -11 -57 -19 -33 -20 -41 -9 -71 9 -24 9 -39 2 -53 -40 -74 61 -227 163 -247 18 -3 75 -1 127 5 104 12 123 23 135 87 3 19 9 34 13 34 4 0 21 -15 39 -33 23 -24 29 -36 22 -47 -18 -29 -11 -68 17 -89 l26 -21 -41 -88 c-51 -108 -64 -160 -61 -231 2 -38 -2 -66 -14 -88 -21 -40 -21 -56 -1 -99 15 -32 15 -35 -5 -60 -23 -30 -27 -79 -10 -118 10 -22 8 -29 -20 -61 -36 -41 -40 -83 -16 -142 15 -36 15 -37 -12 -60 -15 -12 -31 -22 -34 -23 -3 0 -15 -17 -27 -39 -15 -27 -22 -56 -22 -93 0 -63 27 -112 120 -218 31 -36 62 -75 69 -87 6 -13 11 -74 11 -150 0 -197 13 -256 97 -456 25 -59 44 -109 42 -110 -26 -20 -322 -117 -355 -117 -35 0 -11 -27 142 -160 90 -80 164 -146 164 -148 0 -3 -14 -20 -31 -40 -55 -63 -70 -110 -79 -260 -9 -142 -17 -342 -14 -342 1 0 70 31 153 70 83 38 153 70 156 70 3 0 19 -28 36 -62 80 -163 255 -458 270 -458 10 0 34 32 63 83 26 45 80 129 121 186 84 118 110 180 103 252 -4 36 -2 49 8 49 7 0 86 -45 175 -100 89 -55 163 -99 164 -98 6 7 47 323 52 398 7 110 -6 157 -62 220 -27 30 -45 60 -45 74 0 16 26 52 75 106 65 70 211 269 203 275 -2 1 -76 13 -166 26 l-162 24 34 30 c47 41 57 65 46 105 -8 29 -6 36 16 57 14 13 36 47 49 76 36 82 61 101 129 98 55 -2 59 -1 93 35 33 36 39 38 102 39 64 2 181 42 181 62 0 5 -16 32 -35 60 -39 59 -104 102 -165 110 -31 4 -44 12 -59 39 -40 67 -101 77 -188 29 -24 -13 -45 -20 -47 -17 -2 4 -12 53 -21 110 -17 103 -17 234 1 277 5 13 -12 3 -48 -27 -30 -27 -58 -48 -61 -48 -4 0 -18 23 -32 50 -14 28 -47 74 -73 103 -69 76 -89 108 -103 160 -6 26 -15 47 -19 47 -5 0 -39 -52 -77 -115 -37 -63 -71 -111 -75 -107 -4 4 -11 36 -17 71 -20 122 27 227 126 283 125 71 283 38 283 -58 0 -62 -9 -69 -45 -34 l-32 31 -27 -31 c-36 -43 -41 -73 -22 -124 28 -73 78 -106 160 -106 61 0 105 32 141 105 27 54 30 69 29 150 0 68 -6 104 -23 147 -25 65 -96 149 -160 189 l-44 28 42 17 c86 34 112 104 70 186 l-21 40 25 27 c47 50 59 99 37 156 -9 23 -4 34 36 91 25 35 50 64 55 64 6 0 39 -7 75 -16 36 -9 66 -15 68 -13 2 2 -4 48 -15 103 l-18 98 34 45 c39 52 43 83 20 159 l-15 49 33 27 c17 15 47 38 64 50 18 13 33 26 33 29 0 4 -32 15 -70 25 -91 23 -95 26 -80 54 6 12 12 42 13 66 0 36 -5 50 -28 74 -16 16 -43 35 -62 41 -24 8 -32 15 -29 27 10 33 46 180 46 187 0 4 -14 -5 -31 -19 -26 -22 -40 -26 -95 -26 l-64 0 0 29 c0 64 -70 110 -170 111 l-45 1 58 19 c71 22 94 41 109 92 10 34 20 44 68 68 63 32 80 58 80 123 0 38 4 46 52 89 l53 46 0 76 c0 64 3 77 18 82 9 3 28 20 42 38 32 41 34 107 5 154 -26 42 -25 46 9 90 51 64 49 115 -8 166 l-20 18 31 46 c18 26 33 62 36 87 4 39 1 47 -39 90 -38 41 -44 53 -51 112 -8 73 -31 107 -98 144 -31 18 -36 25 -36 60 -2 60 -57 109 -124 109 -24 0 -33 6 -40 28 -31 84 -61 102 -168 102 -39 0 -104 9 -148 21 -111 30 -125 31 -164 14z m127 -26 c15 -6 36 -18 47 -27 15 -14 39 -17 122 -17 99 0 105 -1 130 -27 21 -21 27 -37 28 -72 1 -48 5 -53 23 -35 6 6 28 11 49 11 31 0 44 -7 67 -32 29 -33 33 -66 12 -112 -5 -14 -2 -18 11 -18 11 0 42 -11 70 -24 42 -20 54 -31 64 -60 10 -32 9 -42 -8 -76 l-19 -39 29 -12 c40 -17 88 -74 88 -107 0 -28 -28 -81 -61 -118 -19 -20 -19 -21 21 -63 22 -23 40 -50 40 -59 0 -21 -22 -55 -63 -99 l-30 -32 32 -36 c38 -44 42 -70 19 -128 -13 -33 -54 -57 -99 -57 l-31 0 31 -35 c61 -69 51 -109 -44 -172 -30 -19 -55 -39 -55 -42 0 -3 7 -15 15 -25 24 -31 18 -72 -14 -108 -25 -28 -36 -33 -73 -32 l-43 1 -19 -59 c-22 -71 -44 -88 -112 -88 -58 0 -72 11 -84 65 -7 31 -6 35 8 31 10 -3 39 -10 65 -15 43 -8 51 -6 75 14 26 23 27 23 8 44 -10 11 -38 26 -62 33 l-44 13 34 39 33 39 53 -26 c69 -35 99 -34 133 1 l27 28 -71 34 c-39 19 -73 38 -75 42 -3 4 6 23 18 43 23 35 23 35 80 29 51 -6 60 -4 87 19 l30 25 -27 18 c-15 10 -44 18 -65 17 -25 0 -37 4 -34 11 41 101 37 97 71 91 42 -8 89 23 116 75 19 37 19 41 4 47 -16 6 -65 -4 -108 -22 -16 -7 -18 -4 -12 23 3 18 8 45 12 61 4 24 11 30 44 35 60 9 87 46 81 110 -2 30 -5 30 -59 -3 -27 -17 -52 -31 -56 -31 -3 0 -6 25 -6 55 0 53 1 55 39 74 60 31 91 74 91 127 l0 44 -42 -26 c-24 -15 -56 -36 -71 -47 -16 -10 -29 -18 -31 -16 -8 11 -32 119 -28 124 3 3 13 5 22 5 10 0 29 9 44 21 22 17 26 28 26 70 0 48 -1 49 -30 49 -20 0 -39 -11 -63 -35 l-35 -36 -31 52 -32 51 26 23 c21 20 25 33 25 80 0 49 -2 55 -21 55 -38 0 -59 -19 -65 -60 -4 -22 -9 -40 -12 -40 -4 0 -23 17 -44 37 -36 35 -37 38 -21 55 25 28 21 77 -11 125 -28 41 -29 42 -56 28 -32 -16 -41 -42 -33 -91 3 -19 4 -34 2 -34 -2 0 -26 8 -54 19 -37 14 -58 30 -78 60 -35 50 -59 67 -114 79 -24 6 -43 9 -43 8 0 -1 11 -30 24 -63 l24 -62 -51 -8 c-60 -10 -101 -2 -131 26 -37 34 -73 43 -112 26 -24 -10 -33 -19 -28 -27 20 -35 52 -59 87 -65 l38 -6 -36 -37 c-35 -36 -40 -38 -98 -37 -53 1 -69 -3 -104 -27 -24 -16 -40 -32 -37 -37 3 -5 33 -9 67 -9 83 0 89 -5 75 -59 -7 -29 -26 -60 -55 -89 -23 -25 -43 -50 -43 -54 0 -5 20 -6 44 -3 l44 7 6 -59 c4 -32 2 -74 -4 -93 -20 -68 -7 -79 38 -30 l27 30 45 -29 c42 -26 59 -48 74 -93 9 -29 24 -20 37 22 9 30 19 42 42 50 26 9 36 7 69 -15 21 -14 43 -23 48 -20 5 3 0 27 -11 53 -17 39 -19 53 -10 83 19 63 14 98 -18 130 -32 32 -73 38 -130 18 -38 -14 -40 -27 -3 -35 15 -4 35 -14 45 -22 36 -31 10 -122 -35 -122 -37 0 -86 31 -102 65 -23 47 -21 159 4 210 18 39 58 92 63 84 1 -2 7 -13 13 -23 19 -36 34 -30 34 13 0 46 -2 44 68 65 51 15 54 14 47 -2 -15 -35 -11 -57 12 -60 20 -3 21 -1 13 27 -8 29 -7 31 19 31 16 0 49 -3 74 -6 l46 -7 -20 -39 c-21 -42 -18 -58 11 -58 26 0 34 17 13 29 -16 9 -16 12 -3 21 25 17 64 11 103 -15 20 -14 37 -27 37 -29 0 -2 -7 -23 -15 -46 -19 -55 -19 -55 10 -68 30 -14 34 1 9 30 -16 16 -15 18 1 24 29 11 68 -17 97 -71 15 -28 28 -53 28 -57 0 -5 -14 -8 -31 -8 -68 0 -94 -51 -43 -85 36 -23 54 -5 25 26 -19 21 -20 24 -5 32 42 24 93 -42 109 -139 l6 -42 -51 -7 c-47 -6 -51 -9 -46 -29 3 -11 6 -29 6 -38 0 -10 7 -18 15 -18 10 0 15 10 15 30 0 33 15 38 44 17 21 -16 31 -80 19 -127 -8 -32 -14 -36 -56 -44 -40 -8 -47 -13 -47 -33 0 -27 16 -30 42 -7 16 16 18 15 24 0 11 -29 -3 -98 -31 -159 l-27 -57 -36 30 c-35 29 -37 29 -54 12 -16 -16 -17 -23 -6 -52 l12 -35 13 33 c17 43 33 32 33 -22 0 -41 -19 -79 -79 -155 l-18 -24 -19 31 c-22 38 -36 44 -70 32 -27 -11 -30 -48 -3 -41 44 11 59 -9 45 -64 -5 -21 -112 -135 -126 -135 -4 0 -10 13 -13 30 -8 38 -48 65 -75 51 -28 -15 -46 -68 -25 -75 26 -10 32 -7 35 22 3 30 16 35 31 11 29 -46 -47 -138 -135 -164 -55 -16 -54 -16 -113 30 -17 14 -18 17 -5 25 28 18 63 23 92 12 26 -9 28 -8 34 16 14 67 41 127 66 145 18 13 48 21 97 25 39 2 71 6 71 7 0 1 -9 23 -20 48 -17 37 -18 50 -9 71 14 29 57 52 118 62 39 6 42 9 37 33 -20 110 -20 110 58 166 l27 20 -16 44 c-18 52 -14 70 27 117 28 31 29 36 15 52 -8 9 -22 32 -31 50 -19 36 -15 61 16 104 l19 27 -38 24 c-69 44 -84 71 -70 127 5 22 0 28 -36 46 -36 18 -42 27 -45 57 -3 34 -4 35 -41 30 -42 -6 -71 14 -71 48 0 23 0 23 -34 5 -33 -17 -62 -11 -81 17 -13 19 -15 19 -66 -27 -29 -26 -65 -54 -81 -62 -15 -8 -28 -16 -28 -17 0 -2 46 -3 103 -2 80 0 110 -4 140 -19 65 -32 79 -97 32 -146 l-26 -27 20 -34 c26 -42 26 -62 4 -101 -18 -29 -20 -29 -75 -23 -53 6 -58 5 -89 -24 -42 -41 -64 -39 -109 8 -33 35 -43 39 -103 45 -105 12 -141 55 -113 135 13 39 13 40 -20 72 -40 39 -43 67 -9 107 l25 30 -46 46 c-45 45 -46 47 -42 96 6 57 26 84 74 102 31 11 34 16 34 51 0 79 46 122 131 122 33 0 56 -7 77 -22 l30 -22 44 33 c93 71 139 87 195 65z m-34 -120 c35 -29 49 -59 26 -59 -13 0 -99 71 -99 82 0 18 38 6 73 -23z m257 -31 c25 -42 25 -53 -2 -78 l-23 -21 -13 43 c-13 45 -9 88 8 88 6 0 19 -15 30 -32z m-512 -26 c12 -8 22 -20 22 -28 0 -11 -11 -9 -50 6 -28 11 -53 20 -55 20 -3 0 -5 7 -5 15 0 18 52 10 88 -13z m397 -61 c170 -60 284 -200 342 -419 35 -134 37 -337 4 -457 -52 -190 -171 -370 -358 -541 -123 -112 -156 -138 -172 -132 -6 1 21 28 60 58 149 116 273 266 358 434 74 145 96 234 96 396 -1 156 -14 219 -76 348 -118 246 -403 362 -593 242 -142 -90 -169 -346 -44 -415 97 -52 192 55 128 145 l-21 30 22 0 c85 0 76 -150 -12 -196 -85 -44 -205 17 -239 122 -29 88 8 235 79 317 87 98 261 126 426 68z m278 -73 c-7 -56 -19 -68 -34 -35 -14 31 1 77 25 77 11 0 13 -10 9 -42z m-1200 -239 c35 -59 83 -187 73 -196 -2 -2 -35 56 -73 129 -39 72 -75 134 -82 136 -8 3 -10 -15 -5 -65 7 -78 -3 -123 -65 -285 -47 -122 -53 -187 -21 -228 11 -14 20 -33 20 -44 0 -29 -29 0 -53 53 -25 56 -18 99 36 245 41 111 41 112 42 252 l0 142 45 -38 c25 -21 62 -66 83 -101z m810 95 c22 -14 53 -28 71 -31 23 -3 36 -13 44 -32 7 -14 23 -41 37 -60 14 -18 29 -50 35 -69 5 -20 25 -52 45 -72 33 -34 35 -39 24 -63 -12 -27 -14 -27 -110 -27 -53 0 -99 -3 -102 -7 -2 -5 -2 -2 0 6 2 8 -1 38 -7 68 -10 48 -9 55 9 79 59 75 -15 170 -159 207 -48 12 -51 15 -34 26 28 17 102 4 147 -25z m529 -25 c-1 -38 -18 -59 -48 -59 -31 0 -30 3 8 56 35 49 41 49 40 3z m-1377 -257 c-1 -123 -18 -262 -32 -248 -3 3 -2 96 2 206 5 150 10 199 19 190 7 -7 11 -59 11 -148z m1445 29 c-15 -29 -57 -54 -77 -47 -14 6 -8 16 33 57 42 43 49 47 52 30 2 -11 -2 -29 -8 -40z m-1376 -34 c8 -12 8 -22 0 -34 -21 -33 -34 -26 -34 17 0 43 13 50 34 17z m176 -86 c38 -98 65 -209 55 -219 -2 -3 -7 1 -9 9 -47 132 -99 275 -102 278 -12 13 -119 -112 -150 -174 -29 -57 -34 -63 -30 -35 8 46 49 128 84 165 42 45 93 86 104 83 5 -2 27 -50 48 -107z m-85 -124 c-8 -81 -15 -167 -15 -192 0 -25 -4 -45 -10 -45 -27 0 -24 185 5 301 34 137 40 119 20 -64z m-245 -39 c-14 -10 -29 -18 -34 -18 -15 0 0 83 25 135 l23 50 6 -75 c5 -71 4 -76 -20 -92z m1170 143 c0 -4 11 -25 25 -46 30 -43 23 -64 -7 -22 -23 32 -38 35 -38 8 0 -63 -33 -67 -50 -6 -7 25 -15 45 -19 45 -3 0 -17 -28 -30 -62 l-24 -63 -12 35 c-15 46 -37 53 -28 9 l6 -32 -36 27 c-43 33 -45 43 -17 79 18 23 30 27 88 30 37 2 84 4 105 5 20 1 37 -2 37 -7z m-998 -133 c-4 -61 -13 -69 -43 -42 -17 16 -17 18 12 61 17 24 32 43 33 41 1 -2 0 -29 -2 -60z m153 -4 l28 -66 -41 -41 c-23 -23 -44 -39 -47 -36 -8 8 16 209 25 209 4 0 20 -30 35 -66z m558 43 c18 -8 38 -21 46 -30 11 -15 10 -18 -15 -27 -15 -6 -33 -9 -41 -6 -20 8 -16 -8 7 -29 29 -26 25 -35 -15 -35 -55 0 -115 28 -115 54 0 40 44 83 88 85 7 1 27 -5 45 -12z m229 -50 c36 -58 43 -90 28 -143 -14 -51 -25 -47 -37 10 -5 22 -15 42 -22 44 -11 4 -13 -5 -7 -44 4 -27 9 -81 12 -121 l4 -72 -37 -7 c-21 -4 -40 -5 -43 -3 -11 9 -7 31 6 36 29 11 -7 33 -53 33 -54 0 -73 18 -114 108 l-28 62 35 0 c48 0 93 -21 131 -61 29 -31 60 -89 47 -89 -3 0 -26 16 -52 36 -53 40 -71 29 -21 -13 56 -48 67 -54 94 -47 34 8 32 37 -6 85 -42 54 -44 116 -5 182 15 26 30 47 34 47 4 0 19 -19 34 -43z m-130 -48 c-3 -41 -8 -46 -30 -33 -24 15 -26 38 -6 58 24 24 39 14 36 -25z m-879 -5 c45 -29 87 -109 87 -164 0 -34 -1 -33 -23 21 -29 68 -66 118 -106 142 -37 21 -37 21 -45 -73 -3 -36 -24 -126 -46 -200 -47 -153 -49 -202 -10 -285 36 -78 35 -127 -1 -81 -54 68 -65 187 -29 311 11 39 32 131 46 205 14 74 27 141 30 149 6 18 48 7 97 -25z m490 -9 c16 -7 67 -82 67 -99 0 -4 -12 7 -27 25 -36 43 -103 72 -147 64 -44 -9 -134 -81 -191 -153 -55 -69 -192 -343 -234 -467 -94 -280 -107 -578 -37 -842 15 -56 12 -61 -18 -38 -44 33 -75 305 -57 509 20 239 86 452 217 706 58 113 162 238 231 281 57 36 131 41 196 14z m191 -29 c20 -24 36 -47 36 -51 0 -4 -22 -4 -50 0 -52 7 -62 1 -32 -21 21 -15 8 -32 -28 -36 -24 -3 -25 -1 -25 56 1 49 4 61 24 77 13 11 27 19 31 19 4 0 24 -20 44 -44z m-709 -30 c18 -41 23 -313 8 -341 -10 -16 -12 -13 -17 25 -9 75 -18 350 -11 350 3 0 12 -15 20 -34z m463 22 c-2 -6 -23 -18 -46 -26 -70 -23 -160 -125 -222 -251 -48 -97 -70 -193 -70 -308 0 -126 27 -219 93 -326 47 -75 87 -159 87 -180 -1 -18 -102 97 -139 158 -18 29 -44 86 -59 127 -24 66 -26 87 -26 213 0 134 1 144 32 226 61 161 187 318 287 358 59 24 68 25 63 9z m982 -20 c-1 -29 -50 -68 -84 -68 -27 0 -18 18 27 49 47 33 57 37 57 19z m-945 -17 c-4 -13 2 -25 18 -37 14 -11 27 -31 31 -46 5 -23 3 -28 -12 -28 -54 0 -84 -22 -113 -84 -16 -33 -29 -67 -29 -74 0 -25 -39 -90 -70 -116 -18 -15 -44 -26 -61 -26 -54 0 -31 -25 44 -47 70 -21 76 -21 146 -7 40 8 84 19 98 25 31 12 56 12 49 0 -11 -18 14 -61 48 -83 20 -13 36 -25 36 -28 0 -3 -33 -14 -72 -23 -40 -9 -83 -20 -95 -23 -19 -5 -23 -2 -23 15 0 11 -13 35 -28 52 -50 56 -149 40 -174 -27 -12 -34 -14 -35 -99 -50 l-36 -6 -6 49 c-15 116 24 238 124 388 80 120 112 150 168 159 23 3 44 13 47 21 9 22 16 18 9 -4z m247 -58 c9 -10 18 -27 22 -39 5 -17 -1 -24 -35 -39 -22 -10 -55 -36 -73 -58 -21 -25 -38 -37 -45 -32 -8 5 1 19 30 46 35 33 41 43 36 67 -4 21 0 35 14 51 24 26 31 26 51 4z m-665 -39 c16 -24 16 -28 -2 -60 -10 -19 -22 -34 -27 -34 -4 0 -8 27 -8 60 0 65 10 74 37 34z m521 -6 c7 10 14 10 35 -1 l27 -14 -32 -32 c-40 -39 -51 -39 -46 -1 3 17 1 33 -4 36 -4 3 -8 11 -8 17 0 7 4 6 10 -3 8 -12 12 -12 18 -2z m262 -64 c22 -9 40 -19 40 -23 0 -4 -22 -13 -50 -20 -64 -16 -66 -35 -4 -25 58 8 53 -9 -10 -37 -31 -13 -50 -16 -76 -9 -53 12 -100 31 -100 39 0 12 53 59 85 75 38 20 65 20 115 0z m-410 -88 c-23 -100 -40 -138 -72 -160 -28 -20 -14 -20 76 -1 37 8 75 20 82 26 8 7 18 9 22 5 9 -9 -22 -33 -65 -52 -32 -14 -120 -19 -158 -8 -19 5 -18 8 16 44 21 22 44 61 54 92 23 70 57 150 62 145 2 -2 -6 -43 -17 -91z m100 87 c0 -5 -9 -37 -20 -73 -25 -81 -25 -87 0 -65 11 10 22 33 26 51 8 44 24 44 24 0 0 -43 -36 -95 -85 -123 -50 -29 -59 -29 -51 0 4 12 16 58 27 102 14 52 28 86 42 97 24 19 37 23 37 11z m-600 -68 c0 -36 -3 -65 -6 -65 -3 0 -14 5 -26 11 -21 11 -20 32 4 92 17 45 28 31 28 -38z m720 -44 c0 -5 -11 -12 -25 -15 -14 -4 -25 -13 -25 -21 0 -9 6 -12 15 -9 24 10 49 -4 37 -19 -19 -23 -32 -66 -22 -72 6 -4 14 5 20 19 15 41 34 32 26 -11 -3 -21 -6 -53 -6 -70 0 -40 -12 -42 -46 -7 -20 19 -24 31 -20 50 5 20 1 30 -19 45 -30 25 -31 43 -5 87 14 22 27 32 45 32 14 0 25 -4 25 -9z m190 -25 c0 -2 7 -20 15 -40 l16 -37 -58 3 c-68 4 -74 16 -23 52 33 23 50 31 50 22z m-933 -32 c31 -23 46 -64 23 -64 -12 0 -80 68 -80 80 0 17 22 11 57 -16z m817 20 c12 -5 13 -10 5 -26 -6 -11 -8 -26 -5 -34 3 -8 2 -14 -2 -14 -7 0 -42 63 -42 75 0 7 25 6 44 -1z m534 -87 c11 -8 11 -12 0 -18 -32 -20 -74 -9 -137 37 -1 2 0 7 3 12 6 10 114 -14 134 -31z m-1338 -42 c0 -7 -5 -17 -11 -21 -13 -8 -29 13 -29 39 0 15 3 16 20 7 11 -6 20 -17 20 -25z m103 -142 c7 -99 36 -212 72 -283 13 -26 65 -96 114 -156 79 -94 91 -114 91 -146 0 -21 0 -41 1 -45 0 -4 -4 -9 -9 -11 -5 -1 -14 16 -21 38 -13 43 -35 60 -53 42 -7 -7 -2 -21 17 -46 15 -20 26 -38 24 -40 -2 -2 -18 -6 -36 -9 -31 -6 -32 -6 -39 41 -4 26 -8 71 -8 99 -1 53 -1 53 -33 53 -17 0 -42 -4 -56 -9 -27 -11 -39 -5 -56 26 -15 29 -15 30 16 38 64 16 70 52 16 107 -32 32 -37 45 -40 95 -5 68 -20 113 -39 113 -20 0 -26 -35 -19 -115 7 -71 6 -76 -19 -105 -14 -18 -26 -37 -26 -44 0 -16 29 -42 57 -50 43 -13 37 -87 -12 -132 -14 -13 -25 -28 -25 -33 0 -6 37 -47 82 -91 l82 -79 -24 -28 c-14 -15 -28 -32 -32 -37 -13 -17 -38 16 -38 50 0 27 -4 34 -20 34 -32 0 -26 -52 10 -93 35 -41 37 -48 10 -65 -17 -10 -22 -9 -34 11 -25 37 -55 183 -68 322 -10 119 -9 142 10 272 20 132 79 363 93 363 3 0 9 -39 12 -87z m391 52 c13 -10 22 -33 27 -67 7 -51 6 -54 -23 -79 l-30 -25 23 -17 c13 -9 17 -14 7 -11 -11 4 -21 -3 -30 -23 -9 -18 -21 -28 -35 -27 -18 0 -20 -3 -12 -17 5 -10 9 -25 9 -35 0 -16 -6 -23 -62 -64 l-27 -21 -11 21 c-9 17 -7 28 10 55 27 43 34 44 28 5 -5 -36 1 -37 25 -4 12 16 16 32 11 47 -10 28 -5 70 9 79 6 4 19 2 28 -3 25 -13 35 -11 21 3 -7 7 -12 28 -12 48 l0 35 -20 -25 c-26 -34 -35 -19 -18 32 19 56 40 56 50 -1 9 -51 14 -59 30 -43 19 19 -2 84 -34 102 -37 20 -60 5 -72 -46 -15 -69 -14 -67 -38 -50 -37 26 -76 20 -96 -14 -21 -38 -32 -38 -32 -1 0 41 24 56 86 54 l52 -2 11 44 c6 24 19 49 29 54 25 15 74 13 96 -4z m681 3 c30 -14 32 -24 5 -33 -28 -9 -70 2 -100 25 l-25 20 47 0 c26 0 59 -5 73 -12z m-182 -115 c-22 -31 -44 -58 -49 -60 -5 -1 -20 6 -34 17 -22 18 -23 21 -8 30 9 6 38 28 65 49 65 52 77 36 26 -36z m-389 1 c24 -23 20 -31 -24 -42 -22 -5 -40 -9 -40 -7 0 10 33 65 40 65 5 0 16 -7 24 -16z m451 -20 c18 -7 45 -55 45 -81 0 -10 -8 -23 -19 -30 -16 -10 -20 -8 -29 13 -7 13 -9 31 -6 39 4 8 1 15 -5 15 -6 0 -16 -11 -21 -25 -12 -31 -50 -35 -50 -6 0 20 45 81 60 81 5 0 16 -3 25 -6z m-711 -18 c50 -21 58 -40 12 -32 -45 9 -48 -8 -3 -24 l32 -13 -33 -10 c-28 -9 -36 -7 -57 13 -14 13 -25 33 -25 45 0 39 19 44 74 21z m531 -16 c18 -11 40 -31 49 -44 15 -24 14 -25 -21 -47 l-36 -22 -19 23 c-10 13 -23 30 -27 38 -12 22 -28 7 -35 -32 -11 -57 -66 -59 -66 -2 1 88 80 132 155 86z m-165 -17 c-4 -16 -11 -52 -15 -82 -8 -67 -27 -106 -62 -125 l-27 -14 35 -17 c58 -29 69 -44 69 -91 0 -42 2 -45 49 -68 27 -14 50 -23 53 -21 7 7 1 -59 -7 -78 -8 -19 -10 -19 69 -2 20 4 32 1 42 -12 27 -34 35 -64 25 -100 l-10 -34 44 6 c24 4 52 4 62 1 26 -8 43 -47 43 -95 l0 -39 36 13 c47 16 68 10 100 -28 32 -38 29 -91 -10 -141 l-25 -34 50 -4 c76 -8 106 -45 101 -124 -1 -11 -18 -39 -38 -63 l-36 -42 46 -40 c63 -55 63 -88 1 -163 l-44 -55 29 -30 c43 -43 42 -91 -4 -137 -32 -32 -38 -34 -104 -34 -39 0 -73 4 -77 9 -8 14 29 31 68 31 43 0 83 31 92 71 4 17 5 32 3 34 -2 2 -30 -3 -63 -10 -32 -8 -61 -13 -62 -11 -2 2 4 31 13 64 15 55 19 61 49 66 54 11 85 41 85 86 0 75 -9 79 -57 24 l-43 -49 0 69 c0 66 1 70 39 111 29 32 41 55 46 88 11 72 -1 75 -59 18 l-52 -51 -27 56 -28 55 25 30 c14 16 29 44 34 62 10 35 5 94 -8 102 -27 16 -70 -40 -70 -92 0 -54 -14 -54 -57 0 -40 49 -41 52 -25 70 13 14 16 34 15 80 -2 33 -6 64 -11 69 -12 12 -61 -39 -69 -71 -9 -42 -12 -42 -50 -14 l-35 27 4 98 c5 118 -7 127 -52 38 -32 -63 -40 -69 -60 -45 -10 12 -10 21 -1 41 6 14 11 37 11 51 0 28 -31 123 -41 123 -3 0 -17 -27 -30 -59 -13 -33 -26 -58 -29 -56 -4 2 -19 22 -34 43 l-27 39 36 36 c40 40 44 70 18 124 l-16 35 -36 -59 -36 -58 -6 30 c-4 17 -7 54 -8 83 -1 48 2 54 29 70 57 35 89 96 70 132 -14 25 -30 25 -81 0 -54 -28 -64 -54 -52 -132 6 -35 9 -65 7 -67 -1 -2 -30 6 -63 17 -33 11 -62 18 -65 15 -9 -9 5 -56 21 -75 8 -9 27 -19 41 -23 43 -10 70 -33 92 -75 31 -62 28 -69 -26 -58 -25 6 -47 8 -50 6 -9 -9 19 -69 37 -78 10 -6 36 -7 58 -4 37 6 43 3 90 -41 28 -26 51 -52 51 -56 0 -5 -20 -9 -45 -9 l-46 0 16 -30 c9 -17 27 -36 41 -42 21 -10 29 -8 55 11 l30 22 47 -38 46 -38 -54 -8 c-29 -4 -55 -9 -57 -11 -2 -1 9 -15 23 -29 29 -30 60 -34 111 -15 24 9 39 9 50 2 26 -16 27 -33 1 -43 -13 -5 -30 -16 -37 -25 -11 -13 -8 -18 21 -36 20 -12 50 -20 79 -20 48 0 72 -17 99 -68 11 -23 11 -24 -37 -21 -64 4 -64 -16 2 -58 83 -52 105 -77 105 -119 l0 -38 -28 28 c-31 29 -95 46 -106 27 -5 -7 22 -41 64 -82 66 -65 71 -72 65 -102 -4 -18 -9 -34 -11 -36 -2 -2 -22 10 -43 27 -34 27 -61 40 -61 29 0 -13 61 -142 68 -145 6 -2 3 -24 -6 -53 l-16 -50 -38 6 c-34 6 -38 5 -38 -14 0 -12 -6 -21 -15 -21 -27 0 -16 34 26 76 l41 41 -27 21 c-22 17 -24 24 -16 41 17 31 13 38 -20 33 l-32 -5 41 59 40 60 -29 32 c-33 37 -36 65 -11 106 17 29 17 29 -15 61 -36 36 -41 61 -18 91 8 10 15 22 15 26 0 3 -26 9 -59 13 -62 7 -77 20 -83 75 -3 26 -16 30 -129 34 -35 1 -35 1 -32 41 3 22 12 48 20 58 15 16 13 17 -39 17 -45 0 -59 4 -78 25 -18 20 -22 32 -17 64 l5 39 -74 37 c-110 54 -126 104 -58 176 l24 25 -41 40 c-40 39 -69 82 -69 105 0 6 23 35 51 63 28 28 65 76 82 106 31 52 34 55 92 66 33 7 71 17 85 23 43 17 50 14 40 -16z m545 -50 c29 -14 38 -26 50 -67 8 -27 14 -50 12 -51 -1 -1 -22 -5 -46 -9 l-43 -7 7 47 c5 37 4 46 -7 42 -86 -32 -87 -32 -107 -14 -24 22 -20 31 23 57 38 23 65 24 111 2z m-925 -46 c0 -18 -33 -19 -46 -2 -21 29 -17 34 16 22 17 -6 30 -15 30 -20z m304 15 c3 -5 -13 -28 -34 -53 -36 -41 -40 -43 -55 -28 -21 21 -11 42 31 70 31 20 50 24 58 11z m420 -16 c47 -20 66 -51 66 -112 l0 -51 50 25 c102 50 184 36 230 -40 28 -46 25 -65 -15 -132 -19 -32 -35 -60 -35 -61 0 -2 30 -10 68 -20 70 -17 101 -36 121 -74 27 -49 -8 -102 -102 -156 l-48 -28 36 -29 c46 -38 65 -76 65 -130 0 -55 -30 -105 -75 -124 -47 -19 -52 -18 -63 15 -10 28 -9 29 34 40 40 10 44 14 38 34 -27 89 -67 129 -182 185 l-77 36 102 9 102 9 52 55 53 56 -23 18 c-13 10 -41 24 -63 29 -44 12 -71 6 -177 -41 -35 -16 -65 -29 -67 -29 -2 0 -10 13 -18 29 l-15 29 45 12 c105 30 189 141 168 224 l-5 23 -77 -22 c-42 -11 -89 -29 -104 -39 -27 -18 -68 -89 -68 -118 0 -14 -5 -15 -36 -5 -46 14 -50 26 -26 74 50 97 49 205 -3 253 l-25 24 -31 -30 c-69 -66 -94 -162 -59 -229 l21 -40 -22 -17 c-34 -28 -32 -32 -66 95 -8 31 -64 87 -107 109 -23 11 -42 22 -44 23 -6 5 53 84 62 85 6 0 31 -18 57 -40 l47 -40 17 26 c9 14 32 43 52 65 30 33 42 39 74 39 22 0 55 -6 73 -14z m-209 -16 c4 -6 1 -18 -6 -26 -11 -13 -14 -13 -27 0 -8 8 -11 19 -8 25 9 14 33 14 41 1z m-747 -75 c-5 -23 -2 -25 31 -25 l36 -1 -24 -19 c-26 -23 -58 -25 -96 -8 -34 16 -32 32 5 25 28 -6 29 -5 23 23 -4 24 -2 30 12 30 13 0 16 -6 13 -25z m907 -15 c16 -30 20 -97 8 -140 -6 -22 -8 -19 -17 24 -10 46 -37 79 -52 63 -4 -4 1 -25 11 -47 16 -35 17 -45 5 -80 -16 -47 -24 -50 -38 -12 -20 52 -24 74 -18 107 7 35 59 115 76 115 5 0 16 -13 25 -30z m459 -22 c-8 -64 -10 -66 -31 -46 -15 16 -15 19 0 42 24 35 21 41 -8 22 -24 -16 -27 -16 -55 4 -17 12 -30 23 -30 26 0 2 29 4 65 4 l66 0 -7 -52z m-189 -194 c-17 -46 -56 -77 -110 -89 -29 -7 -28 -6 12 24 46 35 61 64 43 86 -17 20 -27 12 -34 -28 -5 -27 -15 -37 -51 -55 -42 -20 -45 -21 -45 -3 0 23 38 79 71 103 14 11 47 25 75 32 46 12 49 11 52 -7 2 -11 -4 -39 -13 -63z m273 53 c22 -20 23 -27 17 -82 -4 -33 -8 -61 -10 -63 -2 -2 -21 7 -43 19 l-40 23 24 36 24 35 -45 3 c-43 3 -45 4 -34 25 7 12 17 25 23 30 17 11 58 -2 84 -26z m-1318 -80 c12 -72 13 -97 4 -97 -7 0 -15 11 -18 25 -8 31 -40 65 -61 65 -10 0 -15 -11 -15 -35 0 -26 6 -39 25 -51 25 -16 33 -34 16 -34 -12 0 -121 127 -121 141 0 5 9 9 20 9 13 0 20 7 20 20 0 28 27 36 50 15 19 -18 20 -17 31 14 6 18 16 30 22 28 7 -2 19 -47 27 -100z m500 -92 c0 -57 -11 -70 -30 -35 -8 14 -7 29 4 55 8 19 17 35 20 35 4 0 6 -25 6 -55z m275 35 c68 -33 91 -59 114 -137 25 -85 25 -83 6 -83 -8 0 -15 7 -15 15 0 35 -42 95 -102 145 -100 85 -96 80 -68 80 14 0 43 -9 65 -20z m-611 -76 c-4 -21 1 -44 14 -70 11 -22 38 -75 61 -119 58 -113 55 -154 -4 -50 -40 70 -86 125 -107 125 -3 0 -4 -19 -1 -41 4 -23 2 -40 -3 -38 -5 3 -21 11 -37 18 -15 8 -29 12 -32 9 -3 -2 2 -26 11 -52 9 -26 15 -49 13 -51 -6 -5 -169 89 -169 98 0 4 11 12 25 17 25 9 25 11 10 39 -20 40 -20 41 14 41 25 0 30 4 33 28 3 23 7 27 35 26 28 -2 33 2 38 27 l7 29 29 -21 c25 -18 30 -18 34 -5 17 53 16 51 25 36 5 -8 7 -29 4 -46z m1009 -6 c15 -6 27 -14 27 -18 0 -17 -72 -69 -102 -75 -57 -9 -128 -13 -128 -5 0 4 25 13 55 20 52 12 96 43 82 56 -3 4 -37 -6 -74 -21 -37 -15 -75 -30 -83 -33 -25 -9 32 49 65 65 62 33 94 35 158 11z m237 0 c0 -27 -40 -78 -61 -78 -16 0 -19 4 -14 23 7 23 49 67 66 67 5 0 9 -6 9 -12z m-1117 -42 c15 -3 27 -11 27 -17 0 -6 -9 -8 -21 -4 -21 7 -22 5 -17 -39 9 -81 65 -135 110 -107 18 11 20 11 15 -3 -3 -8 -2 -18 4 -21 20 -13 -4 -25 -51 -25 l-48 0 -66 124 c-36 68 -66 126 -66 130 0 3 19 -3 43 -13 23 -10 54 -21 70 -25z m1064 -105 c34 -50 30 -96 -11 -137 -41 -41 -52 -42 -60 -6 -3 15 -8 36 -11 47 -6 18 -2 20 34 20 23 0 41 2 41 5 0 3 -18 23 -40 45 -31 30 -37 41 -28 52 18 22 50 11 75 -26z m-1618 -6 c16 -8 34 -28 41 -44 l12 -30 38 15 c34 14 42 14 74 0 30 -13 41 -26 67 -83 30 -67 30 -68 13 -105 -9 -21 -21 -38 -25 -38 -4 0 -11 25 -15 56 l-7 57 -14 -34 c-20 -45 -28 -21 -14 38 14 52 8 79 -21 94 -24 13 -35 2 -45 -44 -8 -37 -20 -42 -27 -12 -4 14 -11 25 -16 25 -5 0 -7 -7 -4 -15 4 -8 1 -15 -4 -15 -6 0 -14 9 -17 20 -12 38 -56 80 -83 80 -53 0 -58 -14 -23 -59 36 -46 32 -51 -17 -21 -44 27 -60 25 -34 -3 32 -34 27 -38 -25 -22 -60 18 -103 18 -127 0 -24 -18 -14 -32 34 -46 46 -14 44 -24 -7 -34 -36 -7 -37 -8 -15 -18 l23 -10 -38 -39 c-26 -27 -32 -38 -21 -38 27 0 29 -16 8 -65 -25 -57 -25 -58 -1 -45 29 15 28 15 42 -45 12 -56 22 -67 33 -39 5 13 15 8 56 -26 48 -40 50 -41 40 -15 -14 36 -10 39 37 26 57 -16 69 -15 52 5 -12 15 -8 22 33 59 l47 42 -49 48 -49 48 -42 -13 c-36 -12 -39 -16 -24 -25 9 -5 27 -17 38 -26 21 -16 21 -17 -20 -37 l-41 -21 -26 20 c-21 16 -26 29 -26 63 0 107 119 186 217 144 23 -10 103 -59 122 -75 3 -2 -11 -16 -29 -32 -30 -25 -33 -31 -21 -45 19 -23 34 -20 26 5 -6 18 -3 20 31 17 33 -3 42 -9 61 -43 31 -55 29 -62 -13 -57 -24 3 -39 0 -45 -9 -15 -23 -10 -30 16 -23 40 10 74 -4 95 -39 27 -44 25 -54 -15 -61 -40 -8 -50 -19 -36 -43 10 -17 11 -16 17 5 3 12 10 22 14 22 21 0 40 -14 40 -28 0 -21 -78 -152 -90 -152 -14 0 -12 12 6 55 15 38 15 38 -18 72 -32 33 -32 35 -17 61 15 27 15 29 -37 90 l-53 62 -32 -62 c-47 -95 -54 -100 -97 -82 -30 12 -38 12 -51 1 -28 -24 -48 -26 -80 -6 -17 10 -41 19 -52 19 -39 0 -59 19 -59 54 0 25 -7 38 -26 51 -23 15 -25 21 -20 53 9 49 9 72 1 103 -5 19 -1 33 17 54 24 28 24 28 6 64 -24 47 -23 55 12 94 41 47 83 64 123 49 28 -11 34 -9 57 12 21 21 77 56 88 56 2 0 16 -7 31 -15z m465 -72 c30 -53 27 -67 -9 -33 l-25 23 0 -30 c0 -22 -7 -36 -27 -48 l-26 -18 24 -18 c13 -10 29 -19 36 -19 13 0 12 -13 -4 -55 -6 -16 -14 -39 -18 -50 -5 -16 -12 -8 -35 42 -21 47 -38 68 -70 88 -37 23 -70 73 -70 105 0 6 30 -13 66 -41 l65 -52 22 22 22 22 -22 19 c-31 25 -29 44 10 69 17 11 33 21 34 21 1 0 13 -21 27 -47z m886 -25 c18 -13 44 -40 57 -61 l23 -37 -25 -10 c-40 -15 -61 -12 -91 13 -30 27 -26 47 11 47 38 0 38 17 0 40 -19 12 -35 24 -35 26 0 11 30 2 60 -18z m-690 -47 c0 -35 -23 -48 -95 -54 -55 -4 -63 -3 -36 5 18 5 31 12 27 15 -8 9 77 61 92 55 6 -2 12 -12 12 -21z m99 -58 c1 -8 -11 -13 -28 -13 -16 0 -36 -3 -45 -6 -22 -8 -21 33 0 57 16 18 18 18 45 -4 15 -12 28 -28 28 -34z m-715 35 c64 -19 180 -141 239 -253 29 -54 47 -100 45 -115 -2 -19 -14 -3 -50 72 -57 120 -125 195 -214 239 -54 27 -72 31 -118 27 -98 -8 -156 -72 -156 -172 0 -71 29 -110 81 -108 45 1 83 43 77 84 -5 32 -1 34 24 11 30 -27 23 -70 -14 -93 -70 -43 -130 -36 -184 21 -25 26 -29 38 -28 82 2 147 149 248 298 205z m466 -3 c0 -9 -9 -15 -24 -15 -13 0 -27 -6 -29 -12 -3 -7 -6 -3 -6 10 -1 15 -5 21 -13 16 -7 -4 -8 -3 -4 4 11 18 76 15 76 -3z m334 -27 c25 -36 21 -52 -9 -32 -13 8 -29 13 -35 9 -6 -4 -6 3 2 19 14 32 22 32 42 4z m736 -79 c0 -21 3 -45 6 -53 6 -14 -1 -16 -52 -10 -33 4 -63 11 -69 16 -14 13 14 28 54 28 33 0 34 0 28 39 -3 22 -2 43 1 46 12 12 32 -29 32 -66z m-946 52 c3 -5 -17 -29 -46 -52 l-51 -43 7 39 c9 48 7 45 48 55 18 4 34 8 35 9 1 1 4 -3 7 -8z m-290 -23 c3 -13 6 -42 6 -64 0 -40 2 -42 34 -48 98 -19 101 -59 25 -350 -16 -61 -32 -29 -37 75 l-5 90 32 31 c37 37 42 81 10 98 -24 13 -21 16 -46 -34 l-20 -40 -16 29 c-14 27 -14 32 5 57 22 31 10 36 -28 11 -25 -16 -25 -16 -20 8 3 13 7 48 11 77 3 29 8 59 11 67 9 22 31 18 38 -7z m171 -27 c0 -42 -2 -45 -38 -57 -35 -12 -38 -12 -33 4 2 9 8 33 12 52 7 38 20 52 44 47 11 -2 15 -15 15 -46z m313 14 c16 -17 14 -17 -38 -11 -67 7 -119 -6 -160 -40 -45 -38 -54 -60 -60 -154 l-5 -85 -18 32 c-55 102 33 250 162 272 57 10 102 5 119 -14z m82 -17 c1 -18 11 -95 24 -172 25 -150 24 -173 -6 -206 -25 -27 -35 -19 -14 12 24 33 19 103 -12 183 -25 64 -26 76 -18 143 9 73 26 99 26 40z m94 -175 c-3 -18 0 -54 7 -81 19 -75 -13 -172 -56 -172 -11 0 -10 8 6 35 25 43 23 110 -11 263 -29 136 -20 160 25 62 26 -56 33 -83 29 -107z m-165 125 c-19 -38 -31 -48 -104 -82 -80 -37 -85 -41 -107 -92 -25 -59 -38 -68 -38 -28 0 45 28 77 131 148 54 38 104 75 110 82 24 29 28 12 8 -28z m-61 23 c-4 -12 -179 -123 -185 -117 -8 8 44 82 69 98 38 25 123 39 116 19z m656 -75 c-8 -29 -60 -76 -85 -76 -19 0 -19 2 7 48 15 26 34 55 43 65 15 17 16 18 28 1 7 -10 10 -27 7 -38z m-613 -21 c0 -3 -40 -40 -88 -80 -76 -64 -88 -72 -91 -54 -6 34 23 65 100 106 70 39 80 42 79 28z m68 -92 c23 -77 21 -111 -8 -137 -17 -15 -18 -11 -25 81 -3 54 -9 112 -12 128 -12 59 22 4 45 -72z m-51 -98 c-2 -22 -8 -30 -23 -30 -17 0 -20 8 -23 53 -2 28 -6 52 -11 52 -4 0 -22 -16 -41 -35 -20 -21 -38 -31 -43 -26 -18 18 4 47 60 83 l57 37 14 -52 c7 -29 12 -65 10 -82z m-309 26 c11 -6 42 -11 68 -11 49 0 96 -21 76 -33 -6 -4 -37 -2 -69 3 -101 17 -97 19 -139 -75 -21 -47 -42 -85 -47 -85 -12 0 -12 1 38 143 29 83 40 104 45 88 5 -11 17 -24 28 -30z m-151 -208 c38 -73 1 -50 -41 24 l-38 67 23 50 23 50 5 -75 c3 -50 12 -88 28 -116z m424 12 c21 -103 32 -178 26 -181 -5 -3 -11 -4 -14 -1 -2 2 -19 73 -36 158 -17 85 -33 156 -34 157 -5 7 -282 -207 -303 -234 -11 -15 -26 -44 -33 -65 -15 -51 -28 -50 -28 1 0 48 17 84 57 122 35 33 304 217 319 217 5 1 26 -78 46 -174z m-162 128 c-1 -5 -17 -19 -37 -31 -35 -23 -38 -23 -50 -6 -25 34 -16 44 37 44 28 0 50 -3 50 -7z m259 -71 c35 -26 51 -32 73 -28 15 3 28 3 28 1 0 -6 -80 -168 -86 -174 -15 -16 -13 17 4 73 l20 67 -64 40 c-35 23 -64 47 -64 54 0 20 38 6 89 -33z m-166 16 c6 -20 -10 -68 -37 -107 -14 -20 -30 -48 -37 -63 -11 -25 -29 -38 -29 -22 0 7 69 183 77 197 7 11 21 8 26 -5z m-449 -80 c-13 -44 -19 -51 -32 -35 -9 10 -8 19 4 35 20 29 37 28 28 0z m336 -47 c-7 -28 -16 -51 -20 -51 -4 0 -16 12 -25 27 -18 26 -18 27 15 56 17 15 34 26 37 23 3 -3 0 -28 -7 -55z m260 44 c13 -16 6 -80 -10 -90 -9 -6 -30 55 -30 88 0 21 23 22 40 2z m160 -2 c0 -12 -83 -134 -87 -129 -9 9 19 77 44 106 23 28 43 39 43 23z m-701 -27 c16 -17 22 -33 19 -57 -4 -46 -18 -40 -40 18 -27 71 -21 83 21 39z m-89 -50 c36 -22 73 -50 83 -61 20 -23 49 -86 43 -93 -8 -7 -26 9 -26 24 0 30 -33 64 -95 99 -35 19 -68 35 -73 35 -15 0 -52 -104 -52 -143 0 -18 4 -47 10 -66 7 -27 5 -41 -10 -72 -11 -21 -20 -45 -20 -54 0 -20 -16 -19 -24 1 -11 29 -6 49 19 76 25 27 25 29 9 59 -11 21 -14 44 -10 68 9 58 59 180 71 174 5 -4 39 -25 75 -47z m502 14 c4 -24 0 -31 -24 -41 -38 -16 -43 -8 -23 35 21 44 41 46 47 6z m518 22 c0 -16 -56 -37 -87 -34 -40 4 -43 19 -5 28 15 3 32 7 37 9 20 7 55 5 55 -3z m-686 -124 c-10 -15 -20 -8 -52 37 -36 51 -37 56 -20 73 10 10 19 0 44 -45 18 -31 31 -61 28 -65z m-43 -21 c22 -53 -5 -48 -55 10 -47 52 -49 56 -31 69 17 12 22 10 46 -19 15 -17 33 -45 40 -60z m-237 14 c14 -15 21 -41 24 -81 l4 -60 50 0 c87 0 102 -23 79 -122 -5 -22 -5 -40 1 -46 6 -6 -7 -13 -35 -20 -24 -7 -51 -14 -59 -17 -11 -5 -17 2 -20 24 -4 27 -1 32 26 41 35 11 50 31 61 79 7 31 6 33 -16 26 -13 -4 -41 -16 -62 -27 -42 -21 -42 -21 -52 54 -8 61 -64 172 -89 177 -43 7 6 -141 63 -193 12 -11 21 -23 21 -28 0 -4 -29 -8 -65 -8 -41 0 -65 -4 -65 -11 0 -6 16 -27 35 -46 32 -32 40 -35 73 -30 l37 6 2 -74 3 -75 -63 32 c-34 18 -65 34 -69 36 -5 2 -8 -14 -8 -35 0 -46 27 -81 71 -90 16 -3 29 -7 29 -10 0 -2 -9 -22 -20 -44 l-21 -39 -45 26 c-59 35 -75 23 -48 -37 10 -23 24 -48 32 -55 11 -11 10 -18 -2 -41 -8 -16 -22 -54 -31 -86 l-16 -57 -50 0 c-45 0 -49 -2 -49 -24 0 -16 13 -33 38 -52 20 -16 40 -28 44 -27 4 2 12 -16 18 -40 6 -23 13 -49 16 -59 11 -36 -16 -25 -59 25 -65 76 -87 117 -87 160 0 48 41 91 101 107 36 10 39 13 33 38 -4 15 -15 44 -25 64 -35 70 -19 118 44 133 33 9 33 11 2 57 -40 59 -32 89 30 104 49 11 49 14 1 60 -68 65 -63 115 12 130 l32 7 -35 38 c-40 44 -45 83 -20 143 l15 36 48 -24 c26 -13 56 -33 66 -45z m481 39 c7 -11 -24 -54 -41 -57 -62 -11 -114 -14 -114 -6 0 20 40 45 79 50 23 3 44 10 47 14 7 12 21 11 29 -1z m-301 -76 c49 -55 55 -78 13 -55 -43 24 -67 50 -73 80 -4 17 -3 31 2 30 5 -1 31 -25 58 -55z m667 40 c119 -36 209 -107 263 -209 29 -56 31 -67 31 -160 0 -106 -16 -156 -63 -198 -48 -44 -126 -41 -177 7 -43 41 -51 73 -31 121 l16 38 23 -21 c48 -46 87 -20 87 58 0 60 -45 103 -124 120 -105 22 -196 -9 -270 -91 -76 -85 -96 -195 -56 -321 24 -75 23 -73 6 -59 -26 21 -51 123 -50 201 1 91 19 135 80 200 89 95 230 130 335 83 69 -31 91 -73 87 -164 -2 -54 -7 -74 -20 -83 -13 -8 -21 -6 -35 7 -17 15 -21 15 -41 1 -29 -20 -28 -48 4 -73 57 -45 150 -14 189 64 15 29 20 60 20 115 0 94 -26 152 -102 228 -145 146 -366 162 -552 42 -220 -142 -444 -514 -545 -904 -64 -243 -61 -510 5 -679 30 -76 18 -90 -15 -17 -38 85 -54 147 -66 257 -17 164 13 408 76 602 39 119 144 325 237 464 47 70 87 131 89 135 2 4 26 25 53 46 28 22 82 68 120 101 65 57 109 80 190 98 49 11 185 6 236 -9z m-547 -40 c-6 -25 -5 -25 30 -19 48 10 46 -2 -3 -15 -37 -10 -41 -14 -56 -65 -15 -53 -27 -66 -40 -44 -12 18 4 74 35 122 33 53 43 59 34 21z m521 -9 c157 -41 275 -180 275 -323 0 -35 -5 -73 -11 -85 -36 -70 -111 -106 -149 -72 -27 25 -25 37 5 29 54 -14 105 31 105 92 0 61 -24 118 -69 165 -38 39 -56 49 -104 60 -50 11 -65 10 -119 -5 -110 -30 -175 -80 -279 -211 -100 -128 -133 -165 -142 -165 -23 0 11 61 82 149 104 129 111 141 111 177 0 46 9 63 41 79 31 17 64 21 40 6 -9 -6 -11 -14 -4 -26 9 -16 11 -16 26 5 8 12 13 28 10 36 -11 28 -42 25 -95 -10 -95 -62 -128 -97 -148 -156 -12 -34 -24 -54 -32 -51 -7 2 -32 6 -56 9 -23 2 -45 8 -47 13 -3 4 36 50 87 101 102 103 189 157 294 182 78 19 108 19 179 1z m-616 -108 c16 -42 6 -107 -17 -115 -9 -3 -10 3 -1 25 13 35 4 85 -20 107 -11 10 -40 20 -65 24 -54 8 -64 24 -21 33 46 9 106 -27 124 -74z m147 54 c-14 -14 -28 -23 -30 -20 -9 9 22 46 39 46 13 0 10 -6 -9 -26z m139 -168 c-8 -45 -13 -52 -24 -34 -5 8 -17 11 -30 6 -30 -9 -26 4 12 36 43 38 51 36 42 -8z m-664 -62 c-35 -33 -40 -69 -16 -115 14 -27 14 -29 -10 -48 -13 -10 -30 -36 -36 -57 -10 -33 -8 -45 10 -86 11 -26 21 -53 21 -60 0 -7 -22 -26 -50 -43 -68 -42 -89 -85 -72 -149 15 -54 37 -88 110 -165 32 -33 49 -59 43 -63 -6 -3 -24 8 -39 27 -15 18 -46 54 -69 80 -58 65 -77 105 -76 159 1 72 46 139 95 139 27 0 30 17 10 57 -11 21 -23 53 -27 71 -6 29 -2 37 35 74 l42 42 -22 38 c-27 49 -20 82 23 108 48 29 64 24 28 -9z m514 -55 c14 -20 14 -31 5 -63 -13 -43 -62 -103 -84 -103 -14 0 -86 76 -86 91 0 4 10 25 22 45 l22 37 31 -37 c22 -26 36 -35 48 -30 19 7 21 13 9 32 -5 7 -16 10 -25 6 -13 -4 -17 -1 -17 14 0 38 52 43 75 8z m-240 5 c3 -6 -3 -15 -14 -21 -24 -12 -42 7 -20 21 18 11 26 11 34 0z m-31 -59 c9 -15 -33 -72 -54 -72 -17 0 -18 3 -9 28 14 39 50 64 63 44z m376 -64 c0 -16 -82 -158 -91 -158 -19 0 -158 73 -189 98 -30 26 -32 32 -20 46 12 15 17 13 54 -22 36 -35 49 -40 103 -46 l61 -7 29 51 c26 46 53 66 53 38z m296 -35 c15 -27 54 -79 87 -118 33 -38 66 -85 74 -103 33 -78 2 -53 -92 73 -55 74 -103 135 -106 135 -4 0 -24 -40 -45 -90 -22 -49 -43 -90 -47 -90 -12 0 3 70 25 115 19 37 71 125 75 125 0 0 14 -21 29 -47z m-258 -111 l4 -92 -27 -10 c-15 -6 -29 -9 -31 -7 -2 2 6 22 17 45 33 66 16 72 -22 6 l-34 -59 -3 42 c-3 40 15 88 56 151 26 39 36 20 40 -76z m-308 42 c0 -27 -13 -74 -21 -74 -5 0 -12 14 -16 31 -5 16 -13 29 -18 29 -6 -1 -9 -5 -9 -8 1 -4 5 -25 9 -47 l7 -40 -26 24 c-31 29 -32 40 -6 92 l21 40 29 -18 c17 -9 30 -23 30 -29z m-211 -46 c-22 -59 -72 -114 -77 -85 -5 27 60 137 82 137 11 0 10 -10 -5 -52z m751 30 c1 -33 47 -279 55 -286 3 -3 59 22 125 57 77 40 120 58 120 49 0 -8 7 -69 15 -137 9 -68 13 -126 10 -130 -12 -11 -22 21 -35 107 -7 48 -15 92 -19 98 -4 8 -39 -3 -105 -31 -89 -38 -129 -47 -123 -27 1 4 -12 27 -28 51 -28 42 -30 52 -34 158 -2 78 0 113 8 113 6 0 11 -10 11 -22z m-405 -61 c27 -27 47 -59 56 -87 16 -57 15 -56 38 -36 11 10 37 20 59 23 38 5 42 3 64 -30 13 -22 34 -39 50 -42 32 -7 88 -67 88 -94 0 -27 -36 -68 -86 -97 -45 -27 -45 -27 -26 -48 59 -64 55 -92 -23 -170 -60 -62 -67 -66 -109 -66 -57 0 -110 42 -123 97 l-8 36 -29 -42 c-63 -91 -123 -114 -179 -68 -22 17 -30 34 -36 80 -5 35 -16 69 -29 85 -66 82 -41 125 97 167 l23 7 -30 31 c-36 39 -52 69 -52 99 0 37 36 86 80 108 22 11 40 24 40 29 0 5 9 20 21 35 30 39 64 34 114 -17z m-238 -23 c7 -20 -36 -114 -54 -114 -17 0 -17 4 9 72 24 60 34 70 45 42z m483 -50 c0 -22 -3 -23 -20 -14 -30 16 -25 55 6 43 8 -3 14 -16 14 -29z m159 -163 c52 -70 108 -143 125 -164 19 -24 26 -41 20 -47 -12 -12 -273 336 -280 373 -6 26 -10 30 135 -162z m141 137 c0 -5 -12 -27 -27 -49 -37 -56 -49 -35 -21 35 20 49 25 54 36 39 6 -9 12 -21 12 -25z m-974 -88 c-3 -16 -9 -44 -12 -60 -7 -36 -20 -31 -29 11 -5 20 -2 38 9 54 23 35 39 32 32 -5z m179 -58 c-3 -3 -14 3 -25 13 -29 26 -36 11 -11 -23 12 -17 21 -33 21 -36 0 -9 -52 4 -68 17 -14 11 -8 57 12 90 10 17 13 15 44 -19 17 -21 30 -40 27 -42z m874 -57 c-23 -47 -47 -89 -52 -92 -25 -15 -16 17 29 102 62 119 84 110 23 -10z m-49 37 c0 -17 -26 -62 -39 -67 -11 -4 -51 28 -51 41 0 2 12 10 28 18 30 17 62 21 62 8z m-923 -99 c-5 -65 -42 -183 -57 -183 -4 0 4 56 18 125 28 137 48 165 39 58z m1023 16 c0 -12 -7 -19 -20 -19 -23 0 -24 4 -9 31 12 23 29 16 29 -12z m-258 -45 c23 -20 44 -40 46 -44 2 -4 -13 -18 -32 -30 -49 -30 -92 -24 -124 18 l-25 33 58 -7 c67 -8 71 10 5 21 -43 7 -50 18 -22 34 29 18 48 12 94 -25z m546 -27 c12 -13 26 -36 32 -53 9 -27 14 -29 45 -26 48 6 118 -30 155 -81 17 -23 29 -46 27 -52 -2 -5 -26 -18 -53 -28 -47 -18 -126 -19 -164 -3 -12 5 -19 -3 -29 -29 -7 -20 -24 -43 -38 -52 -24 -16 -29 -16 -70 -1 l-44 16 -14 -28 c-16 -31 -33 -40 -76 -40 l-30 0 17 -29 c28 -47 13 -75 -56 -109 l-60 -30 35 -21 c22 -12 35 -28 35 -41 0 -28 -49 -78 -85 -86 -29 -6 -29 -6 19 44 26 27 46 54 43 59 -4 6 -38 6 -83 1 -42 -4 -79 -6 -81 -4 -3 2 -2 29 2 59 l7 55 31 -9 c43 -12 94 -11 120 2 23 12 56 48 57 62 0 5 -37 8 -82 7 -46 -1 -86 -1 -91 -1 -9 1 19 48 51 83 l24 26 41 -19 c56 -25 80 -24 114 5 32 28 32 27 -56 49 l-55 14 46 27 45 26 44 -24 c49 -27 136 -52 146 -42 4 3 -12 26 -35 49 -23 24 -42 46 -42 50 0 4 27 7 59 7 53 0 63 -4 102 -36 38 -31 48 -35 82 -31 56 8 65 21 41 54 -42 58 -109 73 -203 47 l-24 -7 6 71 c4 40 4 72 -1 72 -4 0 -24 -16 -45 -36 -35 -34 -41 -48 -49 -98 -2 -13 -20 -25 -55 -37 l-53 -18 0 85 c0 94 -8 103 -52 57 -50 -54 -53 -69 -24 -125 l26 -50 -42 -39 c-24 -21 -46 -38 -51 -39 -4 0 -10 14 -14 31 -4 21 -23 44 -62 76 l-56 46 -3 -31 c-6 -55 16 -112 49 -130 58 -32 60 -35 46 -58 -6 -12 -22 -39 -34 -60 -21 -38 -21 -38 -27 -14 -21 99 -29 130 -33 130 -3 0 -40 -29 -83 -65 -69 -58 -79 -63 -85 -46 -16 52 29 109 95 118 37 5 41 8 35 27 -4 12 -10 42 -12 68 -4 43 -2 51 26 79 29 29 35 31 96 27 63 -3 64 -3 58 20 -19 78 100 122 181 67 l36 -24 47 29 c57 36 101 39 131 7z m-1292 -126 c-26 -49 -19 -72 8 -28 22 36 24 37 29 15 8 -30 -17 -55 -65 -63 -48 -9 -48 -4 -1 88 33 63 38 69 41 45 2 -15 -4 -40 -12 -57z m1017 17 c-7 -52 -8 -54 -28 -38 -20 16 -19 39 2 62 25 28 32 22 26 -24z m-293 5 c0 -5 -9 -19 -19 -32 -17 -23 -18 -23 -51 -6 -32 17 -33 18 -15 31 20 15 85 19 85 7z m707 -74 c13 -11 18 -39 8 -39 -3 0 -28 11 -55 25 -48 24 -57 34 -44 48 7 7 70 -17 91 -34z m-766 -9 c10 -14 21 -38 25 -54 l7 -28 -44 7 c-62 10 -99 31 -99 56 0 15 5 19 15 15 8 -3 22 -9 30 -12 10 -4 15 0 15 10 0 9 -4 16 -10 16 -5 0 -10 5 -10 11 0 20 53 4 71 -21z m-362 -55 c23 -43 51 -65 36 -27 -4 9 -10 26 -13 37 -5 20 -5 20 16 1 12 -11 22 -31 22 -46 0 -32 -19 -90 -30 -90 -6 0 -80 151 -80 165 0 3 6 5 13 5 6 0 23 -20 36 -45z m-213 10 c41 -28 76 -31 115 -11 l27 14 52 -111 c34 -70 55 -105 60 -96 3 8 17 50 30 94 13 44 27 84 30 88 11 13 218 -14 224 -29 6 -17 -65 -28 -138 -22 l-52 4 -27 -65 c-15 -36 -27 -72 -27 -79 0 -7 -12 -23 -27 -36 l-27 -23 -16 21 c-9 11 -36 58 -60 104 -34 63 -48 81 -60 76 -44 -19 -68 -15 -103 16 l-37 32 -62 -21 c-65 -22 -74 -22 -64 4 5 14 98 65 118 65 4 0 24 -11 44 -25z m759 -25 c15 -22 25 -43 22 -46 -13 -14 -50 11 -63 42 -17 41 -17 44 0 44 7 0 26 -18 41 -40z m-761 -72 c-3 -4 -11 -8 -18 -8 -19 0 -78 -47 -98 -79 -30 -47 -4 -105 50 -113 22 -3 24 -8 25 -71 1 -37 -1 -67 -5 -67 -41 0 -118 195 -118 301 l0 46 53 15 c46 12 56 12 84 -1 18 -8 30 -18 27 -23z m481 -18 c10 -31 -5 -90 -21 -83 -9 3 -14 -2 -14 -15 0 -26 -14 -36 -28 -19 -10 12 -1 59 23 125 7 19 33 14 40 -8z m-338 -45 c18 -27 33 -55 33 -62 0 -7 -36 13 -80 44 -83 60 -88 76 -20 71 30 -3 40 -10 67 -53z m247 49 c20 -8 20 -23 0 -63 -13 -26 -14 -38 -5 -57 27 -61 4 -92 -29 -38 -24 37 -24 79 -1 137 11 29 12 30 35 21z m-326 -73 c33 -22 78 -56 100 -75 27 -25 42 -33 45 -24 3 7 6 4 6 -8 1 -11 16 -35 35 -53 l33 -32 13 60 13 61 37 -43 38 -42 54 51 c62 59 124 100 165 110 20 5 5 -10 -54 -55 -45 -34 -103 -82 -128 -107 -26 -25 -48 -44 -50 -42 -1 2 -10 18 -19 36 -9 17 -21 32 -25 32 -5 0 -17 -23 -27 -52 l-17 -52 -19 25 c-10 13 -28 34 -40 47 -26 28 -203 162 -215 162 -4 0 -7 -39 -5 -87 1 -49 3 -125 5 -171 1 -45 0 -82 -2 -82 -3 0 -15 10 -28 22 -32 30 -38 18 -20 -36 l16 -46 -35 0 c-35 0 -42 8 -23 27 8 8 6 19 -5 41 -24 46 -20 52 30 52 l46 0 -4 160 c-3 115 -1 160 8 160 6 0 38 -18 72 -39z m-111 3 c3 -8 -4 -25 -17 -40 l-23 -24 21 0 c13 0 22 -6 22 -15 0 -19 -10 -19 -38 1 -26 18 -28 41 -6 72 18 26 32 28 41 6z m738 -71 c3 -43 8 -93 11 -110 3 -20 1 -33 -6 -33 -5 0 -10 6 -10 13 0 17 -19 146 -26 180 -4 20 -2 27 9 27 12 0 17 -18 22 -77z m-105 -33 c-16 -33 -30 -64 -30 -70 0 -24 17 -5 50 55 34 63 35 64 43 37 4 -15 10 -68 13 -117 8 -109 -5 -144 -66 -175 -77 -39 -105 -22 -64 40 29 43 34 46 52 28 15 -15 23 -7 16 19 -5 19 -9 20 -41 11 -32 -9 -38 -7 -65 19 l-31 28 8 -30 c5 -16 9 -46 9 -65 1 -29 -3 -35 -19 -35 -15 0 -24 12 -37 50 -25 75 -22 88 29 146 42 46 135 117 156 118 4 1 -6 -26 -23 -59z m-446 -20 c15 0 86 -74 100 -105 17 -35 21 -111 7 -133 -16 -26 -55 -9 -75 32 l-19 40 21 14 c12 8 22 18 22 23 0 17 -27 9 -50 -16 -15 -16 -34 -25 -52 -25 -23 0 -29 -4 -26 -17 2 -13 11 -17 30 -15 19 2 31 -4 48 -28 21 -29 21 -32 5 -50 -16 -18 -18 -18 -60 12 -49 35 -50 36 -59 206 -7 108 5 118 37 34 11 -29 24 -52 28 -52 12 0 11 11 -6 60 -21 59 -19 64 14 41 16 -12 32 -21 35 -21z m696 -89 c0 -3 -25 -16 -55 -28 -57 -22 -74 -13 -37 19 26 24 92 30 92 9z m-503 -97 l2 -97 -29 28 c-18 18 -30 39 -30 54 0 30 35 111 47 111 4 0 9 -44 10 -96z m52 37 c27 -64 27 -98 0 -106 -11 -4 -22 -5 -23 -3 -7 7 -12 158 -6 158 4 0 17 -22 29 -49z m395 -31 c-6 -26 -4 -30 16 -30 13 0 94 -10 181 -21 l158 -22 -23 -46 c-22 -42 -160 -210 -186 -226 -27 -16 -18 7 26 69 53 77 53 97 0 34 -40 -47 -50 -44 -62 20 -8 42 -19 41 -43 -7 -21 -41 -41 -54 -67 -44 -12 4 -14 14 -9 44 8 47 -6 51 -26 7 -14 -33 -42 -46 -67 -30 -10 7 -8 23 10 80 19 59 28 74 48 80 41 11 172 5 215 -10 l40 -15 -40 -13 c-51 -16 -56 -20 -50 -30 3 -4 29 -2 58 6 28 7 53 14 55 14 1 0 -1 -12 -4 -27 -7 -26 -6 -26 40 12 43 37 45 40 25 47 -41 15 -192 38 -253 38 -33 0 -66 4 -72 8 -14 9 -13 74 1 84 23 17 34 8 29 -22z m-104 -59 c0 -27 -88 -117 -96 -97 -11 30 2 51 43 71 23 11 42 26 43 33 0 20 10 14 10 -7z m-780 -29 c0 -5 -65 -33 -145 -63 -80 -30 -145 -57 -145 -61 0 -4 9 -8 19 -10 25 -4 243 -215 231 -223 -5 -3 -66 45 -135 107 -70 62 -136 118 -148 125 -18 10 -19 13 -6 18 16 6 322 114 327 114 1 1 2 -3 2 -7z m206 -41 c7 -18 14 -61 9 -61 -5 0 -75 97 -75 104 0 12 59 -27 66 -43z m-64 -18 c43 -76 43 -73 20 -73 -26 0 -37 15 -51 72 -18 78 -14 78 31 1z m262 32 c20 -14 39 -25 43 -25 3 0 18 11 35 25 77 65 204 -7 171 -96 l-11 -29 47 0 c51 0 73 -15 84 -59 11 -44 -25 -100 -64 -101 -13 0 -17 9 -17 36 0 41 -25 74 -58 74 -17 0 -30 12 -50 45 -36 61 -52 69 -108 48 -38 -14 -49 -15 -70 -4 -30 17 -71 17 -90 2 -8 -6 -19 -25 -26 -40 -10 -26 -21 -31 -93 -48 -45 -11 -83 -19 -85 -18 -1 1 0 10 4 19 10 25 60 47 89 40 23 -6 25 -4 23 22 -2 40 29 102 61 119 39 21 74 18 115 -10z m380 -22 c-11 -46 -32 -73 -59 -73 -14 0 -25 3 -25 6 0 9 74 94 82 94 5 0 6 -12 2 -27z m-691 -45 l27 -57 -23 -34 c-20 -29 -26 -33 -47 -25 -30 11 -41 28 -34 51 4 11 0 17 -11 17 -21 0 -29 -24 -16 -48 8 -15 7 -23 -4 -32 -8 -7 -15 -19 -15 -26 0 -17 22 -18 37 -3 6 6 21 9 34 7 22 -3 21 -5 -21 -46 l-45 -43 -85 91 c-47 50 -92 91 -100 91 -9 0 -8 3 5 8 11 5 20 14 20 20 0 20 174 92 215 89 32 -3 37 -8 63 -60z m457 -47 c12 -24 13 -68 1 -75 -5 -3 -11 8 -15 25 -6 30 -8 31 -41 26 -39 -6 -43 -2 -18 25 21 24 60 23 73 -1z m-145 -1 c39 -15 21 -33 -25 -25 -33 6 -39 4 -45 -14 -7 -24 -25 -28 -25 -6 0 47 40 66 95 45z m584 -149 c1 -46 -6 -111 -15 -145 -52 -204 -242 -394 -432 -435 -67 -14 -250 -14 -328 0 -123 22 -213 89 -259 192 -24 53 -27 69 -23 141 7 130 68 225 179 281 117 60 220 54 390 -21 136 -60 211 -68 285 -31 27 14 81 50 119 80 82 64 83 64 84 -62z m-501 85 c15 -8 36 -24 47 -36 l20 -23 -25 6 c-43 9 -140 54 -133 60 11 12 63 8 91 -7z m398 -14 c-8 -13 -86 -66 -90 -61 -2 2 -1 19 1 37 5 31 7 32 50 32 24 0 42 -4 39 -8z m-244 -14 c12 -10 32 -88 22 -88 -16 0 -34 16 -34 29 0 24 -20 41 -47 41 -23 0 -30 10 -16 23 11 11 58 8 75 -5z m402 -216 c28 -32 45 -91 46 -162 0 -57 -37 -369 -45 -378 -5 -5 -144 78 -151 90 -14 23 9 17 66 -16 33 -20 63 -36 66 -36 2 0 4 26 4 58 0 31 7 107 15 169 17 128 10 189 -30 261 -14 24 -25 46 -25 49 0 8 36 -16 54 -35z m-1159 -237 c-19 -240 -19 -238 3 -226 10 5 60 21 111 36 142 41 132 18 -24 -52 l-135 -61 0 27 c0 14 7 114 16 221 13 174 26 251 39 238 2 -2 -2 -85 -10 -183z m1131 168 c20 -27 17 -33 -16 -33 -33 0 -35 3 -20 31 13 24 19 24 36 2z m14 -88 c0 -24 -2 -24 -47 -19 -27 4 -52 10 -57 15 -12 11 30 28 72 28 28 1 32 -2 32 -24z m-37 -41 c37 -7 44 -17 28 -43 -7 -11 -18 -8 -55 14 -25 15 -46 29 -46 31 0 6 29 5 73 -2z m-39 -131 c42 -86 53 -119 44 -124 -7 -4 -13 -7 -15 -6 -1 2 -24 55 -51 119 -42 100 -50 128 -36 128 1 0 27 -53 58 -117z m-78 60 c-3 -10 -10 -37 -15 -61 -11 -54 -13 -55 -36 -38 -19 14 -19 15 5 65 13 28 30 51 37 51 9 0 12 -7 9 -17z m143 -9 c2 -2 0 -22 -5 -46 l-9 -41 -32 52 -33 52 38 -7 c20 -4 39 -8 41 -10z m-1049 -49 c0 -16 -55 -113 -62 -109 -17 11 -7 54 20 83 25 27 42 38 42 26z m950 -66 c0 -14 -40 -31 -57 -25 -14 6 -13 10 7 31 18 19 26 22 37 14 7 -6 13 -15 13 -20z m-230 -43 c12 -36 6 -72 -18 -121 -22 -45 -234 -345 -243 -345 -26 0 -184 275 -219 379 -33 99 -18 93 36 -15 28 -54 81 -150 119 -211 l69 -112 19 32 c123 202 207 361 207 392 0 45 15 45 30 1z m-68 -22 c10 -7 11 -41 0 -48 -11 -7 -92 42 -92 56 0 10 72 4 92 -8z m-287 -12 c-22 -20 -85 -53 -85 -45 0 4 -3 18 -6 31 -6 21 -3 22 47 22 29 0 49 -4 44 -8z m75 -16 c0 -17 -15 -34 -56 -62 -54 -37 -56 -38 -70 -20 -18 25 -6 39 65 76 31 16 57 29 59 30 1 0 2 -11 2 -24z m150 -22 c48 -35 50 -37 34 -55 -16 -18 -18 -17 -59 17 -45 36 -64 74 -39 74 8 0 37 -16 64 -36z m-108 -143 c-4 -146 -12 -170 -37 -122 -14 27 -15 41 -6 79 5 26 13 70 16 97 18 155 33 126 27 -54z m108 43 c0 -6 -6 -17 -14 -23 -10 -9 -19 -4 -38 21 -35 48 -40 57 -33 68 7 12 85 -49 85 -66z m-181 7 c-38 -44 -59 -51 -59 -21 0 12 13 27 38 39 54 29 58 26 21 -18z m141 -64 c0 -13 -30 -47 -42 -47 -4 0 -8 23 -8 52 l0 51 25 -23 c14 -13 25 -28 25 -33z"/> <path d="M1355 2937 c-76 -43 -84 -119 -19 -176 19 -17 39 -31 44 -31 6 0 10 -4 10 -10 0 -5 -12 -10 -27 -10 -85 0 -153 -43 -153 -95 0 -51 70 -137 121 -150 29 -7 75 24 98 69 16 29 31 34 31 10 0 -44 75 -104 130 -104 25 0 78 49 81 75 3 41 -2 55 -32 90 -33 37 -32 37 25 50 35 7 86 59 86 87 0 24 -54 104 -80 118 -29 16 -72 12 -105 -10 -16 -11 -33 -20 -36 -20 -3 0 -11 18 -18 39 -13 45 -62 91 -94 91 -12 0 -40 -11 -62 -23z m107 -39 l31 -33 -58 -3 -58 -3 6 -50 c3 -27 2 -49 -3 -49 -4 0 -20 14 -35 31 -20 24 -25 41 -23 68 3 31 7 36 36 42 19 4 39 12 45 18 17 17 27 14 59 -21z m2 -99 c3 -17 6 -43 6 -57 0 -23 -1 -24 -17 -9 -34 30 -51 70 -42 95 7 19 12 21 28 13 10 -6 21 -25 25 -42z m190 24 c3 -10 22 -29 41 -42 l35 -23 -20 -28 c-28 -39 -40 -47 -85 -55 l-40 -7 33 30 c17 17 32 35 32 40 0 16 -31 37 -74 48 l-41 11 45 21 c55 26 67 27 74 5z m-39 -83 c0 -20 -94 -55 -109 -40 -8 8 -7 14 4 20 8 5 24 16 35 24 24 19 70 17 70 -4z m-265 -65 c0 -2 -9 -19 -20 -37 -11 -18 -20 -36 -20 -40 0 -4 18 -20 40 -34 22 -15 40 -30 40 -35 0 -5 -11 -16 -25 -25 -33 -22 -62 -10 -70 29 -4 18 -18 44 -32 59 -31 33 -25 54 19 73 33 14 68 19 68 10z m96 -26 c-17 -25 -87 -69 -98 -63 -5 3 -8 11 -8 19 0 15 77 64 103 65 16 0 17 -2 3 -21z m114 -86 c0 -12 -3 -23 -7 -23 -15 1 -74 101 -67 112 11 17 74 -60 74 -89z m70 4 l19 -41 -32 -31 c-28 -28 -35 -30 -59 -21 -35 13 -35 17 3 39 27 15 31 22 27 50 -3 17 -9 40 -13 51 -7 16 -6 17 14 6 13 -6 31 -30 41 -53z"/> <path d="M2013 1499 c-103 -79 -201 -105 -298 -78 -22 6 -83 31 -136 55 -117 53 -189 64 -272 40 -84 -24 -136 -69 -177 -151 -31 -61 -35 -78 -35 -146 0 -70 3 -81 30 -120 58 -82 163 -131 325 -151 164 -20 318 33 445 154 77 73 124 144 156 234 20 57 41 202 30 208 -4 2 -34 -19 -68 -45z m-539 -33 c9 -14 5 -22 -18 -43 -32 -28 -38 -24 -51 36 -12 56 36 61 69 7z m-105 3 c13 -17 20 -33 18 -36 -11 -10 -68 9 -77 27 -15 28 -13 30 31 39 3 0 15 -13 28 -30z m701 16 c0 -17 -85 -226 -105 -260 -53 -86 -49 -85 -105 -30 l-49 49 41 18 c61 27 138 87 138 108 0 10 -7 21 -17 24 -22 9 -116 -54 -139 -94 -27 -45 -33 -37 -17 23 l15 52 112 56 c113 57 126 63 126 54z m-775 -55 c-3 -4 -21 -11 -40 -14 -19 -4 -35 -12 -36 -19 0 -7 -4 -3 -9 8 -6 15 -1 27 18 47 l26 28 23 -21 c12 -12 20 -25 18 -29z m273 -5 c11 -33 10 -40 -4 -56 -20 -22 -76 -35 -98 -22 -14 7 -11 16 18 58 18 28 31 56 29 62 -4 10 2 11 19 4 14 -5 28 -22 36 -46z m114 -48 c7 -13 5 -25 -7 -43 -17 -27 -51 -31 -80 -10 -19 14 -19 15 5 65 l24 51 24 -22 c13 -13 28 -31 34 -41z m-295 2 c18 -11 40 -34 48 -50 9 -16 17 -29 19 -29 2 0 17 5 35 11 28 10 48 6 149 -26 64 -20 123 -39 131 -41 19 -6 -77 -77 -149 -111 -47 -22 -71 -27 -165 -29 -60 -2 -125 -5 -143 -7 -17 -3 -35 -1 -38 4 -3 5 -11 9 -17 9 -8 0 -11 -17 -8 -52 4 -70 -6 -59 -12 12 -4 56 -33 120 -55 128 -18 6 -4 -44 25 -91 29 -46 23 -58 -15 -31 -38 28 -72 101 -67 144 2 19 -1 40 -7 47 -8 10 -5 13 11 13 19 0 21 6 22 53 1 28 3 44 6 35 3 -10 10 -15 19 -11 13 5 13 7 3 14 -8 4 -10 11 -7 15 11 10 49 -59 44 -78 -2 -10 0 -18 5 -18 5 0 9 -6 9 -14 0 -16 -42 -46 -67 -47 -14 0 -15 -2 -3 -6 8 -3 38 -21 66 -40 58 -39 119 -52 163 -33 23 9 41 9 85 -1 44 -9 65 -10 96 0 39 12 100 55 100 72 0 5 -19 19 -42 31 -34 18 -60 23 -120 23 -49 0 -78 4 -78 11 0 13 -37 47 -69 64 -13 7 -47 12 -75 12 -65 0 -78 8 -41 24 46 20 103 17 142 -7z m388 -13 l30 -24 -21 -29 c-22 -29 -67 -41 -92 -25 -10 7 -7 19 14 55 14 26 29 47 32 47 4 0 21 -11 37 -24z m-415 -41 c16 -9 36 -28 44 -44 14 -25 21 -29 83 -34 37 -4 88 -7 111 -7 49 0 52 -12 8 -44 -22 -17 -40 -20 -87 -19 -90 4 -109 4 -169 -3 -47 -5 -60 -2 -89 18 -60 40 -52 48 39 41 l82 -6 -12 22 c-13 25 -82 60 -117 61 -23 0 -29 10 -16 23 12 13 94 7 123 -8z m483 -143 c26 -23 22 -74 -8 -102 -14 -13 -27 -22 -29 -19 -8 9 -56 109 -56 118 0 12 51 30 65 23 6 -3 18 -12 28 -20z m-84 -86 c14 -38 14 -39 -13 -62 -15 -13 -31 -24 -35 -24 -4 0 -13 24 -21 53 -7 28 -15 58 -18 65 -3 10 5 13 34 10 34 -3 40 -7 53 -42z m-108 -14 l22 -19 -22 -46 c-13 -26 -26 -47 -30 -47 -8 0 -39 118 -33 125 11 11 41 4 63 -13z m-193 -19 c33 -49 33 -51 -3 -73 -19 -12 -39 -19 -43 -16 -13 8 -35 93 -27 105 12 21 53 12 73 -16z m104 0 c33 -30 16 -93 -26 -93 -20 0 -25 6 -30 45 -4 25 -4 49 -1 55 9 15 36 12 57 -7z m-205 -20 c15 -22 14 -24 -18 -37 l-34 -14 -3 34 c-3 29 -6 34 -23 29 -10 -4 -19 -2 -19 3 0 5 19 9 41 8 31 -1 45 -7 56 -23z"/> </g> </svg> 