<svg width="22" height="22" viewBox="0 0 22 22" fill="none" xmlns="http://www.w3.org/2000/svg">
<circle cx="11" cy="11" r="11" fill="#344E41"/>
<path d="M11.36 18C11.36 18.5523 11.8077 19 12.36 19C12.9123 19 13.36 18.5523 13.36 18L11.36 18ZM13.0671 6.2929C12.6766 5.90237 12.0434 5.90237 11.6529 6.2929L5.28893 12.6569C4.89841 13.0474 4.89841 13.6805 5.28893 14.0711C5.67946 14.4616 6.31262 14.4616 6.70315 14.0711L12.36 8.41422L18.0169 14.0711C18.4074 14.4616 19.0405 14.4616 19.4311 14.0711C19.8216 13.6805 19.8216 13.0474 19.4311 12.6569L13.0671 6.2929ZM13.36 18L13.36 7L11.36 7L11.36 18L13.36 18Z" fill="#DAD7CD"/>
<path d="M3.29289 14.6529C2.90237 15.0434 2.90237 15.6766 3.29289 16.0671C3.68342 16.4576 4.31658 16.4576 4.70711 16.0671L3.29289 14.6529ZM13.36 7C13.36 6.44772 12.9123 6 12.36 6L3.36 6C2.80771 6 2.36 6.44772 2.36 7C2.36 7.55229 2.80771 8 3.36 8L11.36 8L11.36 16C11.36 16.5523 11.8077 17 12.36 17C12.9123 17 13.36 16.5523 13.36 16L13.36 7ZM4.70711 16.0671L13.0671 7.70711L11.6529 6.2929L3.29289 14.6529L4.70711 16.0671Z" fill="#DAD7CD"/>
</svg>
